<?xml version="1.0" ?><svg viewBox="0 0 20 20" xmlns="http://www.w3.org/2000/svg"><defs><style>.cls-1{fill:none;}.cls-2{fill:#1b5cf3;}.cls-3{fill:#f92115;}.cls-4{fill:#190d15;}</style></defs><g data-name="Layer 2" id="Layer_2"><g data-name="Layer 1" id="Layer_1-2"><rect class="cls-1" height="20" width="20"/><path class="cls-2" d="M17.16,19H2.84A.83.83,0,0,1,2,18.12l.74-13.5a.83.83,0,0,1,.83-.79H16.42a.83.83,0,0,1,.83.79L18,18.12A.83.83,0,0,1,17.16,19Z"/><path class="cls-3" d="M6.39,6.82h0v2h7.22V4.41A3.41,3.41,0,0,0,10.2,1H9.8A3.41,3.41,0,0,0,6.39,4.41v.2h0Z"/><path class="cls-4" d="M13.61,6.82V4.41a2.78,2.78,0,0,0-.06-.58H6.45a2.78,2.78,0,0,0-.06.58v.2h0V8.82h7.22Z"/></g></g></svg>